<?xml version="1.0" standalone="no"?><!DOCTYPE svg PUBLIC "-//W3C//DTD SVG 1.1//EN" "http://www.w3.org/Graphics/SVG/1.1/DTD/svg11.dtd"><svg t="1758534651767" class="icon" viewBox="0 0 1024 1024" version="1.1" xmlns="http://www.w3.org/2000/svg" p-id="7081" xmlns:xlink="http://www.w3.org/1999/xlink" width="32" height="32"><path d="M204.266 813.462h-18.899a8.895 8.895 0 0 0 0 17.788h18.899a8.893 8.893 0 0 0 8.894-8.894 8.895 8.895 0 0 0-8.894-8.894z m611.439 0H240.952a8.895 8.895 0 0 0 0 17.788h574.753a8.894 8.894 0 0 0 0-17.788z m-667.025 0H74.196a8.895 8.895 0 0 0 0 17.788h74.484a8.894 8.894 0 0 0 0-17.788z m778.196 0h-74.484a8.895 8.895 0 0 0 0 17.788h74.484a8.894 8.894 0 0 0 0-17.788z m37.799 0h-1.112a8.895 8.895 0 0 0 0 17.788h1.112a8.894 8.894 0 0 0 0-17.788z" fill="#040000" p-id="7082"></path><path d="M878.265 738.254a4.364 4.364 0 0 0-4.367-4.36h-13.101a4.363 4.363 0 0 0-4.367 4.36 4.363 4.363 0 0 0 4.367 4.357h13.101a4.363 4.363 0 0 0 4.367-4.357z m50.217-4.36h-13.1a4.363 4.363 0 0 0-4.367 4.36 4.363 4.363 0 0 0 4.367 4.357h13.1a4.363 4.363 0 0 0 4.368-4.357 4.362 4.362 0 0 0-4.368-4.36z m-54.686-22.607a4.37 4.37 0 0 0-6.175 0 4.352 4.352 0 0 0 0 6.164l9.264 9.244a4.372 4.372 0 0 0 6.176 0 4.352 4.352 0 0 0 0-6.164l-9.265-9.244z m38.599 38.523a4.375 4.375 0 0 0-6.176 0 4.353 4.353 0 0 0 0 6.164l9.264 9.246a4.372 4.372 0 0 0 6.176 0 4.353 4.353 0 0 0 0-6.164l-9.264-9.246z m-17.755-49.695a4.365 4.365 0 0 0-4.368 4.359v13.076a4.364 4.364 0 0 0 4.368 4.357 4.362 4.362 0 0 0 4.367-4.357v-13.076a4.364 4.364 0 0 0-4.367-4.359z m0 54.483a4.364 4.364 0 0 0-4.368 4.358v13.076a4.364 4.364 0 0 0 4.368 4.357 4.362 4.362 0 0 0 4.367-4.357v-13.076a4.363 4.363 0 0 0-4.367-4.358z m17.755-27.903l9.264-9.244a4.353 4.353 0 0 0 0-6.164 4.372 4.372 0 0 0-6.176 0l-9.264 9.244a4.353 4.353 0 0 0 0 6.164 4.372 4.372 0 0 0 6.176 0z m-35.511 23.115l-9.263 9.246a4.352 4.352 0 0 0 0 6.164 4.37 4.37 0 0 0 6.175 0l9.265-9.246a4.352 4.352 0 0 0 0-6.164 4.375 4.375 0 0 0-6.177 0z" fill="#F5D421" p-id="7083"></path><path d="M858.928 445.326m-11.457 0a11.457 11.457 0 1 0 22.914 0 11.457 11.457 0 1 0-22.914 0Z" fill="#F0841B" p-id="7084"></path><path d="M738.068 134.422m-11.457 0a11.457 11.457 0 1 0 22.914 0 11.457 11.457 0 1 0-22.914 0Z" fill="#F5D321" p-id="7085"></path><path d="M833.796 306.257h-10.988v10.968c0 3.029-2.461 5.485-5.495 5.485s-5.495-2.456-5.495-5.485v-10.968h-10.989a5.49 5.49 0 0 1-5.495-5.483 5.49 5.49 0 0 1 5.495-5.484h10.989v-10.97c0-3.029 2.461-5.484 5.495-5.484s5.495 2.456 5.495 5.484v10.968h10.988a5.49 5.49 0 0 1 5.495 5.484 5.49 5.49 0 0 1-5.495 5.485z" fill="#52B3E6" p-id="7086"></path><path d="M145.199 165.162a4.364 4.364 0 0 0-4.367-4.36h-13.101a4.363 4.363 0 0 0-4.367 4.36 4.363 4.363 0 0 0 4.367 4.357h13.101a4.363 4.363 0 0 0 4.367-4.357z m50.218-4.36h-13.1a4.363 4.363 0 0 0-4.367 4.36 4.363 4.363 0 0 0 4.367 4.357h13.1a4.363 4.363 0 0 0 4.368-4.357 4.364 4.364 0 0 0-4.368-4.36z m-54.687-22.607a4.37 4.37 0 0 0-6.175 0 4.353 4.353 0 0 0 0 6.165l9.264 9.244a4.372 4.372 0 0 0 6.176 0 4.352 4.352 0 0 0 0-6.164l-9.265-9.245z m38.599 38.523a4.375 4.375 0 0 0-6.176 0 4.353 4.353 0 0 0 0 6.164l9.264 9.246a4.372 4.372 0 0 0 6.176 0 4.353 4.353 0 0 0 0-6.164l-9.264-9.246z m-17.755-49.694a4.365 4.365 0 0 0-4.368 4.359v13.076a4.364 4.364 0 0 0 4.368 4.357 4.362 4.362 0 0 0 4.367-4.357v-13.076a4.363 4.363 0 0 0-4.367-4.359z m0 54.482a4.364 4.364 0 0 0-4.368 4.358v13.076a4.364 4.364 0 0 0 4.368 4.357 4.362 4.362 0 0 0 4.367-4.357v-13.076a4.363 4.363 0 0 0-4.367-4.358z m17.755-27.902l9.264-9.244a4.355 4.355 0 0 0 0-6.165 4.372 4.372 0 0 0-6.176 0l-9.264 9.245a4.353 4.353 0 0 0 0 6.164 4.372 4.372 0 0 0 6.176 0z m-35.511 23.114l-9.263 9.246a4.352 4.352 0 0 0 0 6.164 4.37 4.37 0 0 0 6.175 0l9.265-9.246a4.352 4.352 0 0 0 0-6.164 4.376 4.376 0 0 0-6.177 0z" fill="#F5D421" p-id="7087"></path><path d="M289.607 230.949m-11.457 0a11.457 11.457 0 1 0 22.914 0 11.457 11.457 0 1 0-22.914 0Z" fill="#F5D321" p-id="7088"></path><path d="M126.619 521.267m-11.457 0a11.457 11.457 0 1 0 22.914 0 11.457 11.457 0 1 0-22.914 0Z" fill="#F5D321" p-id="7089"></path><path d="M197.478 683.021l-8.946 6.381 6.369 8.929a5.491 5.491 0 0 1-1.288 7.657 5.492 5.492 0 0 1-7.659-1.274l-6.369-8.929-8.946 6.382c-2.47 1.762-5.899 1.192-7.658-1.273s-1.181-5.894 1.289-7.656l8.947-6.382-6.37-8.929a5.49 5.49 0 0 1 1.289-7.656 5.49 5.49 0 0 1 7.659 1.273l6.37 8.93 8.946-6.381a5.488 5.488 0 0 1 7.658 1.273c1.756 2.464 1.179 5.892-1.291 7.655zM100.818 296.375l-8.946 6.381 6.369 8.929a5.491 5.491 0 0 1-1.288 7.657 5.492 5.492 0 0 1-7.659-1.274l-6.369-8.929-8.946 6.382c-2.47 1.762-5.899 1.192-7.658-1.273s-1.181-5.894 1.289-7.656l8.947-6.382-6.37-8.929a5.49 5.49 0 0 1 1.289-7.656 5.49 5.49 0 0 1 7.659 1.273l6.37 8.93 8.946-6.381a5.488 5.488 0 0 1 7.658 1.273 5.492 5.492 0 0 1-1.291 7.655z" fill="#52B3E6" p-id="7090"></path><path d="M584.601 487.63V226.717c0-42.237-34.245-76.483-76.484-76.483-42.238 0-76.484 34.246-76.484 76.483V487.63c-53.018 27.641-89.23 83.073-89.23 146.995 0 91.521 74.193 165.712 165.714 165.712 91.522 0 165.714-74.19 165.714-165.712-0.001-63.922-36.212-119.354-89.23-146.995" fill="#FFFFFF" p-id="7091"></path><path d="M533.611 509.713V303.2c0-14.079-11.415-25.494-25.495-25.494-14.079 0-25.495 11.416-25.495 25.494v206.513c-58.185 11.81-101.978 63.241-101.978 124.912 0 70.4 57.07 127.472 127.473 127.472 70.403 0 127.474-57.071 127.474-127.472 0-61.671-43.795-113.103-101.979-124.912" fill="#EC7171" p-id="7092"></path><path d="M660.76 628.251c-3.36 81.506-70.309 146.592-152.644 146.592-82.334 0-149.281-65.086-152.643-146.592-0.093 2.13-0.324 4.221-0.324 6.374 0 84.48 68.484 152.966 152.967 152.966 84.483 0 152.968-68.485 152.968-152.966 0-2.153-0.23-4.244-0.324-6.374" fill="#040000" p-id="7093"></path><path d="M460.313 583.636c-5.278 0-9.56 4.282-9.56 9.559 0 5.279 4.282 9.562 9.56 9.562s9.561-4.282 9.561-9.562c0-5.277-4.283-9.559-9.561-9.559m-9.559 38.241c-7.046 0-12.747 5.699-12.747 12.748 0 7.044 5.701 12.744 12.747 12.744s12.747-5.7 12.747-12.744c-0.001-7.049-5.701-12.748-12.747-12.748m70.11-50.989a6.377 6.377 0 0 0-6.374 6.374 6.378 6.378 0 0 0 6.374 6.374 6.379 6.379 0 0 0 6.374-6.374 6.378 6.378 0 0 0-6.374-6.374m-12.748 38.242c-3.518 0-6.374 2.857-6.374 6.374s2.856 6.373 6.374 6.373c3.517 0 6.374-2.856 6.374-6.373s-2.857-6.374-6.374-6.374m-3.188 31.869c-5.278 0-9.559 4.282-9.559 9.56 0 5.278 4.281 9.561 9.559 9.561s9.562-4.282 9.562-9.561c0-5.278-4.283-9.56-9.562-9.56m-50.987 38.24a3.184 3.184 0 0 0-3.187 3.188 3.186 3.186 0 1 0 6.373 0 3.185 3.185 0 0 0-3.186-3.188" fill="#FFFFFF" p-id="7094"></path><path d="M457.126 226.717h25.495V213.97h-25.495v12.747z m0 25.495h12.748v-12.748h-12.748v12.748z m0 25.494h12.748v-12.747h-12.748v12.747z m0 25.494h12.748v-12.747h-12.748V303.2z m0 25.495h12.748v-12.749h-12.748v12.749z" fill="#161C1F" p-id="7095"></path><path d="M533.611 509.719V303.2c0-14.079-11.415-25.494-25.495-25.494-14.079 0-25.495 11.416-25.495 25.494v206.519c-58.185 11.804-101.978 63.235-101.978 124.906 0 70.4 57.07 127.472 127.473 127.472 70.403 0 127.474-57.071 127.474-127.472 0-61.671-43.795-113.103-101.979-124.906m-25.495 239.63c-63.363 0-114.726-51.363-114.726-114.724 0-59.043 44.622-107.631 101.979-113.978V303.2c0-7.045 5.701-12.747 12.747-12.747s12.748 5.702 12.748 12.747v217.448c57.356 6.347 101.978 54.935 101.978 113.978 0 63.359-51.363 114.723-114.726 114.723" fill="#161C1F" p-id="7096"></path><path d="M584.601 473.362V213.97c0-42.237-34.245-76.483-76.484-76.483-42.238 0-76.484 34.246-76.484 76.483v259.393c-60.288 28.646-101.977 90.076-101.977 161.263 0 98.559 79.899 178.46 178.46 178.46s178.461-79.901 178.461-178.46c0-71.188-41.688-132.618-101.976-161.264m-76.485 314.229c-84.482 0-152.967-68.485-152.967-152.966 0-66.599 42.574-123.226 101.977-144.225V213.97c0-28.159 22.831-50.989 50.99-50.989s50.99 22.83 50.99 50.989V490.4c59.403 21 101.978 77.626 101.978 144.225 0 84.48-68.484 152.966-152.968 152.966" fill="#161C1F" p-id="7097"></path></svg>